<mxfile host="app.diagrams.net" modified="2022-11-22T10:01:20.350Z" agent="5.0 (Windows NT 10.0; Win64; x64) AppleWebKit/537.36 (KHTML, like Gecko) Chrome/107.0.0.0 Safari/537.36" etag="lxepFa2WpPWyZ2sLgW2b" version="20.5.3" type="github">
  <diagram id="Xb1q0W9BYtOHd0QG9Tkf" name="第 1 页">
    <mxGraphModel dx="782" dy="436" grid="1" gridSize="10" guides="1" tooltips="1" connect="1" arrows="1" fold="1" page="1" pageScale="1" pageWidth="827" pageHeight="1169" math="0" shadow="0">
      <root>
        <mxCell id="0" />
        <mxCell id="1" parent="0" />
        <mxCell id="kijTvJ-pyeklT5HJPJnh-1" value="职责链模式定义：避免将一个请求的发送者和接收（处理）者耦合在一起，让多个对象都有机会处理请求，将接收请求的对象连接成一条链，并且沿着这条链传递请求，直到有一个对象能够处理它为止&lt;br&gt;&lt;br&gt;" style="text;html=1;strokeColor=none;fillColor=none;align=center;verticalAlign=middle;whiteSpace=wrap;rounded=0;" vertex="1" parent="1">
          <mxGeometry x="100" y="40" width="280" height="140" as="geometry" />
        </mxCell>
        <mxCell id="kijTvJ-pyeklT5HJPJnh-2" value="client" style="html=1;" vertex="1" parent="1">
          <mxGeometry x="130" y="210" width="110" height="40" as="geometry" />
        </mxCell>
        <mxCell id="kijTvJ-pyeklT5HJPJnh-3" value="Handler" style="swimlane;fontStyle=1;align=center;verticalAlign=top;childLayout=stackLayout;horizontal=1;startSize=26;horizontalStack=0;resizeParent=1;resizeParentMax=0;resizeLast=0;collapsible=1;marginBottom=0;" vertex="1" parent="1">
          <mxGeometry x="440" y="180" width="160" height="86" as="geometry" />
        </mxCell>
        <mxCell id="kijTvJ-pyeklT5HJPJnh-4" value="+ successor: Handler" style="text;strokeColor=none;fillColor=none;align=left;verticalAlign=top;spacingLeft=4;spacingRight=4;overflow=hidden;rotatable=0;points=[[0,0.5],[1,0.5]];portConstraint=eastwest;" vertex="1" parent="kijTvJ-pyeklT5HJPJnh-3">
          <mxGeometry y="26" width="160" height="26" as="geometry" />
        </mxCell>
        <mxCell id="kijTvJ-pyeklT5HJPJnh-5" value="" style="line;strokeWidth=1;fillColor=none;align=left;verticalAlign=middle;spacingTop=-1;spacingLeft=3;spacingRight=3;rotatable=0;labelPosition=right;points=[];portConstraint=eastwest;strokeColor=inherit;" vertex="1" parent="kijTvJ-pyeklT5HJPJnh-3">
          <mxGeometry y="52" width="160" height="8" as="geometry" />
        </mxCell>
        <mxCell id="kijTvJ-pyeklT5HJPJnh-6" value="+ hanldeRequest()" style="text;strokeColor=none;fillColor=none;align=left;verticalAlign=top;spacingLeft=4;spacingRight=4;overflow=hidden;rotatable=0;points=[[0,0.5],[1,0.5]];portConstraint=eastwest;" vertex="1" parent="kijTvJ-pyeklT5HJPJnh-3">
          <mxGeometry y="60" width="160" height="26" as="geometry" />
        </mxCell>
        <mxCell id="kijTvJ-pyeklT5HJPJnh-7" style="edgeStyle=orthogonalEdgeStyle;rounded=0;orthogonalLoop=1;jettySize=auto;html=1;entryX=0.75;entryY=0;entryDx=0;entryDy=0;startArrow=diamondThin;startFill=0;" edge="1" parent="kijTvJ-pyeklT5HJPJnh-3" source="kijTvJ-pyeklT5HJPJnh-6" target="kijTvJ-pyeklT5HJPJnh-3">
          <mxGeometry relative="1" as="geometry">
            <mxPoint x="120" y="-60" as="targetPoint" />
            <Array as="points">
              <mxPoint x="320" y="73" />
              <mxPoint x="320" y="-60" />
              <mxPoint x="120" y="-60" />
            </Array>
          </mxGeometry>
        </mxCell>
        <mxCell id="kijTvJ-pyeklT5HJPJnh-8" value="successor" style="text;html=1;strokeColor=none;fillColor=none;align=center;verticalAlign=middle;whiteSpace=wrap;rounded=0;" vertex="1" parent="1">
          <mxGeometry x="630" y="220" width="60" height="30" as="geometry" />
        </mxCell>
        <mxCell id="kijTvJ-pyeklT5HJPJnh-9" style="edgeStyle=orthogonalEdgeStyle;rounded=0;orthogonalLoop=1;jettySize=auto;html=1;entryX=0.267;entryY=1.103;entryDx=0;entryDy=0;entryPerimeter=0;startArrow=none;startFill=0;endArrow=block;endFill=0;" edge="1" parent="1" source="kijTvJ-pyeklT5HJPJnh-10" target="kijTvJ-pyeklT5HJPJnh-6">
          <mxGeometry relative="1" as="geometry">
            <Array as="points">
              <mxPoint x="450" y="300" />
              <mxPoint x="483" y="300" />
            </Array>
          </mxGeometry>
        </mxCell>
        <mxCell id="kijTvJ-pyeklT5HJPJnh-10" value="ConcreteHandlerA" style="swimlane;fontStyle=1;align=center;verticalAlign=top;childLayout=stackLayout;horizontal=1;startSize=26;horizontalStack=0;resizeParent=1;resizeParentMax=0;resizeLast=0;collapsible=1;marginBottom=0;" vertex="1" parent="1">
          <mxGeometry x="310" y="320" width="160" height="60" as="geometry" />
        </mxCell>
        <mxCell id="kijTvJ-pyeklT5HJPJnh-11" value="" style="line;strokeWidth=1;fillColor=none;align=left;verticalAlign=middle;spacingTop=-1;spacingLeft=3;spacingRight=3;rotatable=0;labelPosition=right;points=[];portConstraint=eastwest;strokeColor=inherit;" vertex="1" parent="kijTvJ-pyeklT5HJPJnh-10">
          <mxGeometry y="26" width="160" height="8" as="geometry" />
        </mxCell>
        <mxCell id="kijTvJ-pyeklT5HJPJnh-12" value="+ hanlderRequest()" style="text;strokeColor=none;fillColor=none;align=left;verticalAlign=top;spacingLeft=4;spacingRight=4;overflow=hidden;rotatable=0;points=[[0,0.5],[1,0.5]];portConstraint=eastwest;" vertex="1" parent="kijTvJ-pyeklT5HJPJnh-10">
          <mxGeometry y="34" width="160" height="26" as="geometry" />
        </mxCell>
        <mxCell id="kijTvJ-pyeklT5HJPJnh-13" style="edgeStyle=orthogonalEdgeStyle;rounded=0;orthogonalLoop=1;jettySize=auto;html=1;startArrow=none;startFill=0;endArrow=block;endFill=0;" edge="1" parent="1" source="kijTvJ-pyeklT5HJPJnh-14">
          <mxGeometry relative="1" as="geometry">
            <mxPoint x="540" y="270" as="targetPoint" />
          </mxGeometry>
        </mxCell>
        <mxCell id="kijTvJ-pyeklT5HJPJnh-14" value="ConcreteHandlerB" style="swimlane;fontStyle=1;align=center;verticalAlign=top;childLayout=stackLayout;horizontal=1;startSize=26;horizontalStack=0;resizeParent=1;resizeParentMax=0;resizeLast=0;collapsible=1;marginBottom=0;" vertex="1" parent="1">
          <mxGeometry x="530" y="320" width="160" height="60" as="geometry" />
        </mxCell>
        <mxCell id="kijTvJ-pyeklT5HJPJnh-15" value="" style="line;strokeWidth=1;fillColor=none;align=left;verticalAlign=middle;spacingTop=-1;spacingLeft=3;spacingRight=3;rotatable=0;labelPosition=right;points=[];portConstraint=eastwest;strokeColor=inherit;" vertex="1" parent="kijTvJ-pyeklT5HJPJnh-14">
          <mxGeometry y="26" width="160" height="8" as="geometry" />
        </mxCell>
        <mxCell id="kijTvJ-pyeklT5HJPJnh-16" value="+ handlerRequest()" style="text;strokeColor=none;fillColor=none;align=left;verticalAlign=top;spacingLeft=4;spacingRight=4;overflow=hidden;rotatable=0;points=[[0,0.5],[1,0.5]];portConstraint=eastwest;" vertex="1" parent="kijTvJ-pyeklT5HJPJnh-14">
          <mxGeometry y="34" width="160" height="26" as="geometry" />
        </mxCell>
        <mxCell id="kijTvJ-pyeklT5HJPJnh-17" value="&lt;pre style=&quot;background-color:#2b2b2b;color:#a9b7c6;font-family:&#39;JetBrains Mono&#39;,monospace;font-size:9.8pt;&quot;&gt;&lt;span style=&quot;color:#629755;font-style:italic;&quot;&gt;&lt;br&gt;&lt;/span&gt;&lt;span style=&quot;color:#629755;font-style:italic;&quot;&gt; public abstract class Handler{&lt;br&gt;&lt;/span&gt;&lt;span style=&quot;color:#629755;font-style:italic;&quot;&gt;      private Handler successor;&lt;br&gt;&lt;/span&gt;&lt;span style=&quot;color:#629755;font-style:italic;&quot;&gt;      public void setSuccessor(Handler handler){&lt;br&gt;&lt;/span&gt;&lt;span style=&quot;color:#629755;font-style:italic;&quot;&gt;          this.successor=handler;&lt;br&gt;&lt;/span&gt;&lt;span style=&quot;color:#629755;font-style:italic;&quot;&gt;      }&lt;br&gt;&lt;/span&gt;&lt;span style=&quot;color:#629755;font-style:italic;&quot;&gt; &lt;br&gt;&lt;/span&gt;&lt;span style=&quot;color:#629755;font-style:italic;&quot;&gt;      public abstract void requestHandler(String request)&lt;br&gt;&lt;/span&gt;&lt;span style=&quot;color:#629755;font-style:italic;&quot;&gt;  }&lt;br&gt;&lt;/span&gt;&lt;span style=&quot;color:#629755;font-style:italic;&quot;&gt; &lt;br&gt;&lt;/span&gt;&lt;span style=&quot;color:#629755;font-style:italic;&quot;&gt;  public class ConcreteHandler extends Handler(){&lt;br&gt;&lt;/span&gt;&lt;span style=&quot;color:#629755;font-style:italic;&quot;&gt;      if(&lt;/span&gt;&lt;span style=&quot;color:#629755;font-style:italic;font-family:&#39;宋体&#39;,monospace;&quot;&gt;条件满足&lt;/span&gt;&lt;span style=&quot;color:#629755;font-style:italic;&quot;&gt;){&lt;br&gt;&lt;/span&gt;&lt;span style=&quot;color:#629755;font-style:italic;&quot;&gt;           //&lt;/span&gt;&lt;span style=&quot;color:#629755;font-style:italic;font-family:&#39;宋体&#39;,monospace;&quot;&gt;处理请求&lt;br&gt;&lt;/span&gt;&lt;span style=&quot;color:#629755;font-style:italic;font-family:&#39;宋体&#39;,monospace;&quot;&gt; &lt;/span&gt;&lt;span style=&quot;color:#629755;font-style:italic;&quot;&gt;     }else{&lt;br&gt;&lt;/span&gt;&lt;span style=&quot;color:#629755;font-style:italic;&quot;&gt;          this.successor.handlerRequest(request);//&lt;/span&gt;&lt;span style=&quot;color:#629755;font-style:italic;font-family:&#39;宋体&#39;,monospace;&quot;&gt;转发请求&lt;br&gt;&lt;/span&gt;&lt;span style=&quot;color:#629755;font-style:italic;font-family:&#39;宋体&#39;,monospace;&quot;&gt; &lt;/span&gt;&lt;span style=&quot;color:#629755;font-style:italic;&quot;&gt;     }&lt;br&gt;&lt;/span&gt;&lt;span style=&quot;color:#629755;font-style:italic;&quot;&gt; &lt;/span&gt;&lt;span style=&quot;color:#629755;font-style:italic;&quot;&gt;}&lt;/span&gt;&lt;br&gt;&lt;/pre&gt;" style="text;html=1;strokeColor=none;fillColor=none;align=center;verticalAlign=middle;whiteSpace=wrap;rounded=0;" vertex="1" parent="1">
          <mxGeometry x="90" y="390" width="410" height="300" as="geometry" />
        </mxCell>
        <mxCell id="kijTvJ-pyeklT5HJPJnh-18" value="实列说明：某企业的SCM（供应链管理）系统中包含审批子系统，改企业的&lt;br&gt;审批是分级进行的，即根据采购金额的不同由不同层次的主管人来审批，主任可以审批五万元以下，副董事长可以审批五万元到十万元，董事长可以审批10万元到50万元，&lt;span style=&quot;white-space: pre;&quot;&gt;	&lt;/span&gt;50万元以上由董事会讨论决定" style="text;html=1;strokeColor=none;fillColor=none;align=center;verticalAlign=middle;whiteSpace=wrap;rounded=0;" vertex="1" parent="1">
          <mxGeometry x="550" y="430" width="220" height="230" as="geometry" />
        </mxCell>
      </root>
    </mxGraphModel>
  </diagram>
</mxfile>
